<?xml version="1.0" standalone="no"?>
<!DOCTYPE svg PUBLIC "-//W3C//DTD SVG 20010904//EN"
 "http://www.w3.org/TR/2001/REC-SVG-20010904/DTD/svg10.dtd">
<svg version="1.0" xmlns="http://www.w3.org/2000/svg"
 width="152.000000pt" height="152.000000pt" viewBox="0 0 152.000000 152.000000"
 preserveAspectRatio="xMidYMid meet">
<metadata>
Created by potrace 1.16, written by Peter Selinger 2001-2019
</metadata>
<g transform="translate(0.000000,152.000000) scale(0.100000,-0.100000)"
fill="#000000" stroke="none">
<path d="M800 1311 c-89 -30 -121 -46 -194 -100 l-69 -51 -111 2 c-98 1 -116
-1 -154 -21 -62 -32 -93 -102 -102 -231 -5 -87 -9 -99 -42 -151 -39 -60 -78
-148 -97 -219 -15 -57 -19 -192 -6 -196 6 -2 23 42 39 99 34 118 90 234 140
293 34 39 38 41 103 46 47 3 86 14 126 33 49 24 60 27 67 14 70 -113 210 -215
355 -260 l72 -22 -9 -56 c-14 -98 -14 -98 -64 -110 -58 -15 -94 -50 -94 -92
l0 -32 23 20 c12 11 32 24 45 28 20 6 22 3 22 -26 l0 -33 31 32 c20 21 45 34
70 38 l38 6 -5 42 c-8 55 29 156 56 156 60 0 100 -50 100 -124 0 -53 -27 -80
-90 -91 -42 -7 -101 -41 -108 -63 -3 -9 9 -11 52 -6 55 7 56 7 56 -20 0 -14 2
-26 4 -26 2 0 28 11 58 25 29 14 68 25 86 25 35 0 43 19 17 40 -18 15 -19 40
-3 91 14 50 62 106 149 175 118 94 157 198 147 391 -4 72 -11 103 -31 145 -53
108 -158 182 -318 227 -100 28 -278 29 -359 2z"/>
</g>
</svg>
